Coordinates
version=1
nRows=14
nColumns=24
inDegrees=yes

Units are S.I. units (second, meters, Newtons, ...)
Angles are in degrees.

endheader
time	pelvis_tilt	pelvis_list	pelvis_rotation	pelvis_tx	pelvis_ty	pelvis_tz	hip_flexion_r	hip_adduction_r	hip_rotation_r	knee_angle_r	ankle_angle_r	subtalar_angle_r	mtp_angle_r	hip_flexion_l	hip_adduction_l	hip_rotation_l	knee_angle_l	ankle_angle_l	subtalar_angle_l	mtp_angle_l	lumbar_extension	lumbar_bending	lumbar_rotation
      4.39000000	    -16.03496224	      4.14268331	     -2.34462892	     -1.01075076	     -0.00607970	     -0.40298400	     35.14671953	     -5.72086131	     -6.10821175	    -57.58746786	     -2.16365015	    -10.07384782	     29.63673813	     20.16321917	      6.06027623	     -8.78297465	    -16.57633684	      4.11544263	     -0.18028732	      7.54289614	     20.96671130	     -6.31801622	    -12.68808235
      4.39500000	    -16.08668439	      3.84339819	     -2.13540137	     -1.00531658	     -0.00553543	     -0.40327404	     35.67373472	     -5.51031116	     -6.56743117	    -56.64851663	     -1.82383680	    -10.00027283	     29.27675947	     19.58313538	      5.87593132	     -8.62656186	    -16.14276583	      4.18663446	     -0.01264175	      7.46320707	     20.93880852	     -6.13924629	    -13.06719965
      4.40000000	    -16.04403618	      3.57772494	     -1.93422666	     -0.99990590	     -0.00497858	     -0.40350279	     36.08915731	     -5.33134423	     -7.01229203	    -55.67305503	     -1.51773948	     -9.92793589	     28.63569761	     18.88222658	      5.72660580	     -8.39292701	    -15.67162314	      4.28384457	      0.17156602	      7.31090079	     20.80880109	     -6.00567371	    -13.43058439
      4.40500000	    -16.14333426	      3.33604254	     -1.80206645	     -0.99455162	     -0.00465225	     -0.40366843	     36.66640765	     -5.11417961	     -7.30704024	    -54.63817641	     -1.20219106	     -9.71177626	     28.50133644	     18.36140248	      5.56212287	     -8.30918736	    -15.23074448	      4.37314566	      0.32067687	      7.27392769	     20.83588002	     -5.85338894	    -13.76411960
      4.41000000	    -16.11128200	      3.05092164	     -1.54995103	     -0.98922026	     -0.00420260	     -0.40391346	     37.03141747	     -4.94959483	     -7.77673930	    -53.51220592	     -0.90801934	     -9.53439874	     28.21744201	     17.71181928	      5.38450129	     -8.11237570	    -14.81250151	      4.45999731	      0.56350483	      7.21526274	     20.69882506	     -5.72223202	    -14.23370718
      4.41500000	    -16.12385339	      2.79085311	     -1.38405756	     -0.98389780	     -0.00388304	     -0.40408360	     37.44563362	     -4.75122220	     -8.12987137	    -52.33787870	     -0.60144508	     -9.23233617	     27.99162800	     17.11339999	      5.20269031	     -8.01051723	    -14.39337893	      4.54944905	      0.74056850	      7.15877581	     20.62152768	     -5.57097282	    -14.56975295
      4.42000000	    -16.19352190	      2.56832784	     -1.29021283	     -0.97857727	     -0.00373031	     -0.40420043	     37.92693258	     -4.53321893	     -8.36358775	    -51.12652707	     -0.31724627	     -8.90488213	     27.85680761	     16.56912495	      5.03912179	     -7.94035471	    -13.95893082	      4.66842571	      0.86828080	      7.12199244	     20.61854597	     -5.41140008	    -14.81953643
      4.42500000	    -16.14137320	      2.30215476	     -1.08365211	     -0.97329391	     -0.00343326	     -0.40434630	     38.20796955	     -4.34821025	     -8.72384016	    -49.82338557	     -0.05008236	     -8.54214167	     27.61070740	     15.91545639	      4.84730661	     -7.79850101	    -13.55772306	      4.76101674	      1.12099156	      7.08852411	     20.45880558	     -5.28175007	    -15.22072918
      4.43000000	    -16.24176935	      2.11213994	     -1.03298768	     -0.96802771	     -0.00343058	     -0.40433731	     38.68694428	     -4.10832171	     -8.84144578	    -48.49963327	      0.19697608	     -8.17911916	     27.49575709	     15.41939908	      4.69368235	     -7.75566741	    -13.14119299	      4.85772245	      1.21427892	      7.05287854	     20.48764921	     -5.14631228	    -15.39042831
      4.43500000	    -16.15025187	      1.83305717	     -0.83202604	     -0.96272056	     -0.00323055	     -0.40453963	     38.86719891	     -3.92650394	     -9.22856656	    -47.08404353	      0.44652558	     -7.76297839	     27.20268082	     14.73493669	      4.48550625	     -7.66216060	    -12.75910677	      4.99653064	      1.45451660	      7.03280651	     20.29047797	     -4.98209693	    -15.77589499
      4.44000000	    -16.12783773	      1.60604708	     -0.73664004	     -0.95743454	     -0.00317808	     -0.40457082	     39.13156795	     -3.69165357	     -9.42347649	    -45.63348761	      0.63847394	     -7.36494983	     26.87896789	     14.11834859	      4.29952725	     -7.61084019	    -12.36383104	      5.11012847	      1.60457919	      6.99360173	     20.18147790	     -4.82778445	    -16.01257564
      4.44500000	    -16.22297513	      1.42864242	     -0.68158250	     -0.95221921	     -0.00333214	     -0.40453194	     39.52443537	     -3.45134632	     -9.47484480	    -44.14725402	      0.80212094	     -6.97869172	     26.70541351	     13.65278529	      4.15126517	     -7.57933260	    -12.00523828	      5.20047963	      1.68344918	      6.95876975	     20.19333879	     -4.70598894	    -16.15506265
      4.45000000	    -16.09766208	      1.17667410	     -0.54967740	     -0.94690105	     -0.00327446	     -0.40458152	     39.60120713	     -3.21341933	     -9.69862553	    -42.58499012	      0.92834695	     -6.61002868	     26.21940290	     12.93074529	      3.94063721	     -7.49453585	    -11.62364586	      5.35594277	      1.89761619	      6.92095600	     19.97082825	     -4.54368639	    -16.47869113
      4.45500000	    -16.21766867	      1.02243995	     -0.52929036	     -0.94164214	     -0.00359683	     -0.40454657	     39.97735846	     -2.98448435	     -9.72957365	    -41.02353253	      1.01609035	     -6.23119350	     26.03992993	     12.50171735	      3.81253457	     -7.50225382	    -11.28941724	      5.46855508	      1.92302388	      6.87853160	     20.02469350	     -4.41875501	    -16.56760961
